<svg width="96" height="96" xmlns="http://www.w3.org/2000/svg" xmlns:xlink="http://www.w3.org/1999/xlink" xml:space="preserve" overflow="hidden"><g transform="translate(-77 -99)"><path d="M155.5 132 151.625 143.625 128.875 143.625 125 132 121.125 143.625 98.375 143.625 94.5 132 90.625 143.625 79 143.625 87.912 151.375 84.425 163 94.5 156.025 104.575 163 101.088 151.375 109.743 143.848 109.757 143.848 118.412 151.375 114.925 163 125 156.025 135.075 163 131.588 151.375 140.243 143.848 140.257 143.848 148.913 151.375 145.425 163 155.5 156.025 165.575 163 162.088 151.375 171 143.625 159.375 143.625ZM98.8 150.713 101.017 158.105 94.5 153.592 87.982 158.105 90.2 150.713 84.348 145.625 92.067 145.625 94.5 138.325 96.933 145.625 104.652 145.625ZM131.015 151.213 134.185 161.78 125 155.417 115.814 161.776 118.984 151.209 110.837 144.125 121.485 144.125 125 133.581 128.515 144.125 139.163 144.125ZM161.515 151.213 164.685 161.78 155.5 155.417 146.314 161.776 149.484 151.209 141.337 144.125 151.985 144.125 155.5 133.581 159.015 144.125 169.663 144.125Z"/></g></svg>